<svg width="616" height="917" viewBox="0 0 616 917" fill="none" xmlns="http://www.w3.org/2000/svg">
<ellipse cx="213" cy="241.119" rx="55" ry="85.1191" fill="#1283B3"/>
<ellipse cx="188" cy="240.691" rx="25" ry="38.6905" fill="#0DB8FF"/>
<ellipse cx="175.5" cy="240.607" rx="7.5" ry="11.6072" fill="#1283B3"/>
<path d="M40.2501 449C19.7866 432.985 19.7867 402.015 40.2502 386L397.348 106.532C423.604 85.9832 462 104.69 462 138.032L462 696.968C462 730.309 423.604 749.017 397.348 728.468L40.2501 449Z" fill="#FFBF00"/>
<path d="M476 167C476 144.909 493.909 127 516 127V277C493.909 277 476 259.091 476 237V167Z" fill="#0DB8FF"/>
<path d="M516 127C571.228 127 616 171.772 616 227V277H516V127Z" fill="#0DB8FF"/>
<ellipse cx="407" cy="301.5" rx="17" ry="33.5" fill="#640DFF" fill-opacity="0.61"/>
<ellipse cx="412" cy="301.5" rx="10" ry="20.5" fill="#640DFF" fill-opacity="0.61"/>
<rect x="411" y="294" width="130" height="15" fill="#4C12B3"/>
<rect x="526" y="284" width="15" height="10" fill="#4C12B3"/>
<path d="M556 277H616V467C616 500.137 589.137 527 556 527V277Z" fill="#0DB8FF"/>
<path d="M496 502C496 474.386 518.386 452 546 452H556V527H521C507.193 527 496 515.807 496 502Z" fill="#0DB8FF"/>
<ellipse cx="282" cy="234.119" rx="55" ry="85.1191" fill="#1283B3"/>
<ellipse cx="257" cy="233.691" rx="25" ry="38.6905" fill="#0DB8FF"/>
<ellipse cx="244.5" cy="233.607" rx="7.5" ry="11.6072" fill="#1283B3"/>
<ellipse cx="291.611" cy="473.293" rx="62" ry="98" transform="rotate(-16 291.611 473.293)" fill="#0DB8FF"/>
<ellipse cx="285.275" cy="509.893" rx="31.6942" ry="50.0972" transform="rotate(-16 285.275 509.893)" fill="#1283B3"/>
<path d="M124.08 857.44C126.16 859.44 127.2 861.76 127.2 864.4C127.2 867.04 126.2 869.36 124.2 871.36C122.2 873.36 119.84 874.36 117.12 874.36C114.16 874.36 111.44 873.08 108.96 870.52L74.76 835.48V863.8C74.76 867.16 73.76 869.84 71.76 871.84C69.76 873.76 67.04 874.72 63.6 874.72C60.24 874.72 57.56 873.76 55.56 871.84C53.64 869.84 52.68 867.16 52.68 863.8V799.6C52.68 796.32 53.64 793.72 55.56 791.8C57.56 789.8 60.24 788.8 63.6 788.8C67.04 788.8 69.76 789.8 71.76 791.8C73.76 793.72 74.76 796.32 74.76 799.6V826L108.48 792.04C110.56 789.88 112.92 788.8 115.56 788.8C118.2 788.8 120.52 789.8 122.52 791.8C124.52 793.72 125.52 796 125.52 798.64C125.52 801.28 124.36 803.72 122.04 805.96L97.44 830.08L124.08 857.44ZM173.739 875.08C165.099 875.08 157.579 873.32 151.179 869.8C144.859 866.2 139.979 861.16 136.539 854.68C133.099 848.12 131.379 840.44 131.379 831.64C131.379 822.84 133.099 815.2 136.539 808.72C139.979 802.16 144.859 797.12 151.179 793.6C157.579 790.08 165.099 788.32 173.739 788.32C182.379 788.32 189.859 790.08 196.179 793.6C202.579 797.12 207.459 802.16 210.819 808.72C214.259 815.2 215.979 822.84 215.979 831.64C215.979 840.44 214.259 848.12 210.819 854.68C207.379 861.16 202.459 866.2 196.059 869.8C189.739 873.32 182.299 875.08 173.739 875.08ZM173.739 858.16C180.139 858.16 185.139 855.92 188.739 851.44C192.339 846.88 194.139 840.28 194.139 831.64C194.139 823 192.299 816.44 188.619 811.96C185.019 807.48 180.059 805.24 173.739 805.24C167.339 805.24 162.339 807.48 158.739 811.96C155.139 816.36 153.339 822.92 153.339 831.64C153.339 840.36 155.139 846.96 158.739 851.44C162.339 855.92 167.339 858.16 173.739 858.16ZM254.6 874.6C251.24 874.6 248.52 873.64 246.44 871.72C244.44 869.72 243.44 867.08 243.44 863.8V807.28H226.52C223 807.28 220.36 806.56 218.6 805.12C216.92 803.6 216.08 801.32 216.08 798.28C216.08 795.24 216.92 793 218.6 791.56C220.36 790.12 223 789.4 226.52 789.4H282.68C286.2 789.4 288.8 790.12 290.48 791.56C292.24 793 293.12 795.24 293.12 798.28C293.12 801.32 292.24 803.6 290.48 805.12C288.8 806.56 286.2 807.28 282.68 807.28H265.76V863.8C265.76 867.08 264.72 869.72 262.64 871.72C260.64 873.64 257.96 874.6 254.6 874.6ZM367.14 788.8C370.42 788.8 373.02 789.8 374.94 791.8C376.94 793.72 377.94 796.32 377.94 799.6V863.8C377.94 867.08 376.94 869.72 374.94 871.72C373.02 873.72 370.42 874.72 367.14 874.72C363.86 874.72 361.22 873.76 359.22 871.84C357.3 869.84 356.34 867.16 356.34 863.8V839.8H321.78V863.8C321.78 867.08 320.78 869.72 318.78 871.72C316.86 873.72 314.26 874.72 310.98 874.72C307.7 874.72 305.06 873.76 303.06 871.84C301.14 869.84 300.18 867.16 300.18 863.8V799.6C300.18 796.32 301.14 793.72 303.06 791.8C305.06 789.8 307.7 788.8 310.98 788.8C314.26 788.8 316.86 789.8 318.78 791.8C320.78 793.72 321.78 796.32 321.78 799.6V822.28H356.34V799.6C356.34 796.32 357.3 793.72 359.22 791.8C361.22 789.8 363.86 788.8 367.14 788.8ZM433.544 875.08C424.904 875.08 417.384 873.32 410.984 869.8C404.664 866.2 399.784 861.16 396.344 854.68C392.904 848.12 391.184 840.44 391.184 831.64C391.184 822.84 392.904 815.2 396.344 808.72C399.784 802.16 404.664 797.12 410.984 793.6C417.384 790.08 424.904 788.32 433.544 788.32C442.184 788.32 449.664 790.08 455.984 793.6C462.384 797.12 467.264 802.16 470.624 808.72C474.064 815.2 475.784 822.84 475.784 831.64C475.784 840.44 474.064 848.12 470.624 854.68C467.184 861.16 462.264 866.2 455.864 869.8C449.544 873.32 442.104 875.08 433.544 875.08ZM433.544 858.16C439.944 858.16 444.944 855.92 448.544 851.44C452.144 846.88 453.944 840.28 453.944 831.64C453.944 823 452.104 816.44 448.424 811.96C444.824 807.48 439.864 805.24 433.544 805.24C427.144 805.24 422.144 807.48 418.544 811.96C414.944 816.36 413.144 822.92 413.144 831.64C413.144 840.36 414.944 846.96 418.544 851.44C422.144 855.92 427.144 858.16 433.544 858.16ZM553.892 788.8C556.932 788.8 559.412 789.8 561.332 791.8C563.332 793.8 564.332 796.4 564.332 799.6V863.8C564.332 867.08 563.372 869.72 561.452 871.72C559.532 873.72 557.052 874.72 554.012 874.72C550.412 874.72 547.692 873.52 545.852 871.12L509.372 825.64V863.8C509.372 867.08 508.452 869.72 506.612 871.72C504.772 873.72 502.292 874.72 499.172 874.72C496.132 874.72 493.652 873.72 491.732 871.72C489.812 869.72 488.852 867.08 488.852 863.8V799.6C488.852 796.4 489.812 793.8 491.732 791.8C493.652 789.8 496.132 788.8 499.172 788.8C502.612 788.8 505.292 790 507.212 792.4L543.692 837.76V799.6C543.692 796.32 544.612 793.72 546.452 791.8C548.372 789.8 550.852 788.8 553.892 788.8Z" fill="#1283B3"/>
</svg>
